<svg xmlns="http://www.w3.org/2000/svg" version="1.1" xmlns:xlink="http://www.w3.org/1999/xlink" xmlns:svgjs="http://svgjs.dev/svgjs" width="1500" height="935" viewBox="0 0 1500 935"><g transform="matrix(1,0,0,1,-0.9090909090909918,0.3785425101214628)"><svg viewBox="0 0 396 247" data-background-color="#ffffff" preserveAspectRatio="xMidYMid meet" height="935" width="1500" xmlns="http://www.w3.org/2000/svg" xmlns:xlink="http://www.w3.org/1999/xlink"><g id="tight-bounds" transform="matrix(1,0,0,1,0.2400000000000091,-0.09999999999999432)"><svg viewBox="0 0 395.52 247.2" height="247.2" width="395.52"><g><svg></svg></g><g><svg viewBox="0 0 395.52 247.2" height="247.2" width="395.52"><g transform="matrix(1,0,0,1,136.63259923175417,47.215199999999996)"><svg viewBox="0 0 122.25480153649167 152.7696" height="152.7696" width="122.25480153649167"><g><svg viewBox="0 0 122.25480153649167 152.7696" height="152.7696" width="122.25480153649167"><g><svg viewBox="0 0 122.25480153649167 152.7696" height="152.7696" width="122.25480153649167"><g><svg viewBox="0 0 122.25480153649167 152.7696" height="152.7696" width="122.25480153649167"><g id="textblocktransform"><svg viewBox="0 0 122.25480153649167 152.7696" height="152.7696" width="122.25480153649167" id="textblock"><g><svg viewBox="0 0 122.25480153649167 152.7696" height="152.7696" width="122.25480153649167"><g transform="matrix(1,0,0,1,0,0)"><svg width="122.25480153649167" viewBox="5 -39.05 31.25 39.05" height="152.7696" data-palette-color="#be78c9"><path d="M6.95 0L6.95 0Q6.1 0 5.55-0.55 5-1.1 5-1.95L5-1.95 5-37.1Q5-37.95 5.55-38.5 6.1-39.05 6.95-39.05L6.95-39.05Q7.85-39.05 8.45-38.35L8.45-38.35 32.35-6.95 32.35-37.1Q32.35-37.95 32.9-38.5 33.45-39.05 34.3-39.05L34.3-39.05Q35.1-39.05 35.68-38.5 36.25-37.95 36.25-37.1L36.25-37.1 36.25-1.95Q36.25-1.1 35.68-0.55 35.1 0 34.3 0L34.3 0Q33.9 0 33.5-0.15 33.1-0.3 32.85-0.65L32.85-0.65 8.9-32.05 8.9-1.95Q8.9-1.1 8.33-0.55 7.75 0 6.95 0Z" opacity="1" transform="matrix(1,0,0,1,0,0)" fill="#be78c9" class="wordmark-text-0" data-fill-palette-color="primary" id="text-0"></path></svg></g></svg></g></svg></g></svg></g></svg></g></svg></g></svg></g><path d="M318.934 41.215L318.934 0 71.734 0 71.734 247.2 318.934 247.2 318.934 205.985 305.157 205.985 305.157 233.423 85.511 233.423 85.511 13.777 305.157 13.777 305.157 41.215Z" fill="#d3a5da" stroke="transparent" data-fill-palette-color="tertiary"></path></svg></g><defs></defs></svg><rect width="395.52" height="247.2" fill="none" stroke="none" visibility="hidden"></rect></g></svg></g></svg>